<mxfile host="app.diagrams.net" modified="2023-12-13T11:08:10.951Z" agent="Mozilla/5.0 (Macintosh; Intel Mac OS X 10_15_7) AppleWebKit/605.1.15 (KHTML, like Gecko) Version/15.6.1 Safari/605.1.15" etag="K6TjW5Emj-Z1Y1tGj3Ii" version="22.1.8" type="github">
  <diagram id="RfpzjJQe_nUU93gx4Dxn" name="Page-1">
    <mxGraphModel dx="954" dy="647" grid="1" gridSize="10" guides="1" tooltips="1" connect="1" arrows="1" fold="1" page="1" pageScale="1" pageWidth="850" pageHeight="1100" background="none" math="0" shadow="0">
      <root>
        <mxCell id="0" />
        <mxCell id="1" parent="0" />
        <mxCell id="qbSNNWnGffYOng-eK7Mu-39" value="" style="edgeStyle=orthogonalEdgeStyle;rounded=0;orthogonalLoop=1;jettySize=auto;html=1;" parent="1" source="vRBI4vWx7eo8pq1-qWPK-1" target="qbSNNWnGffYOng-eK7Mu-26" edge="1">
          <mxGeometry relative="1" as="geometry" />
        </mxCell>
        <mxCell id="qbSNNWnGffYOng-eK7Mu-47" value="" style="edgeStyle=orthogonalEdgeStyle;rounded=0;orthogonalLoop=1;jettySize=auto;html=1;" parent="1" source="vRBI4vWx7eo8pq1-qWPK-1" target="qbSNNWnGffYOng-eK7Mu-46" edge="1">
          <mxGeometry relative="1" as="geometry" />
        </mxCell>
        <mxCell id="vRBI4vWx7eo8pq1-qWPK-1" value="cereal production" style="ellipse;whiteSpace=wrap;html=1;fontSize=12;strokeWidth=1;fillColor=#bac8d3;strokeColor=#23445d;" parent="1" vertex="1">
          <mxGeometry x="838" y="564" width="120" height="40" as="geometry" />
        </mxCell>
        <mxCell id="vRBI4vWx7eo8pq1-qWPK-2" value="Model of Nepali farmers decision to switch from current production to commercial turmeric production" style="text;whiteSpace=wrap;fontSize=12;fontStyle=1;strokeWidth=1;" parent="1" vertex="1">
          <mxGeometry x="950" y="17" width="560" height="60" as="geometry" />
        </mxCell>
        <mxCell id="vRBI4vWx7eo8pq1-qWPK-3" value="&lt;span style=&quot;color: rgb(0, 0, 0); font-family: Helvetica; font-size: 12px; font-style: italic; font-variant-ligatures: normal; font-variant-caps: normal; letter-spacing: normal; orphans: 2; text-align: left; text-indent: 0px; text-transform: none; widows: 2; word-spacing: 0px; -webkit-text-stroke-width: 0px; background-color: rgb(251, 251, 251); text-decoration-thickness: initial; float: none; display: inline !important;&quot;&gt;A cost benefit model&lt;/span&gt;&lt;span style=&quot;color: rgb(0, 0, 0); font-family: Helvetica; font-size: 12px; font-style: italic; font-variant-ligatures: normal; font-variant-caps: normal; letter-spacing: normal; orphans: 2; text-align: left; text-indent: 0px; text-transform: none; widows: 2; word-spacing: 0px; -webkit-text-stroke-width: 0px; background-color: rgb(251, 251, 251); text-decoration-thickness: initial; float: none; display: inline !important;&quot;&gt;&amp;nbsp;of the expected livelihoods effect&amp;nbsp;&lt;/span&gt;" style="text;whiteSpace=wrap;html=1;fontSize=12;fontStyle=0;strokeWidth=1;" parent="1" vertex="1">
          <mxGeometry x="970" y="59" width="450" height="40" as="geometry" />
        </mxCell>
        <mxCell id="vRBI4vWx7eo8pq1-qWPK-4" value="Turmeric production" style="ellipse;whiteSpace=wrap;html=1;fontSize=12;strokeWidth=1;fillColor=#bac8d3;strokeColor=#23445d;" parent="1" vertex="1">
          <mxGeometry x="860" y="267" width="120" height="55" as="geometry" />
        </mxCell>
        <mxCell id="vRBI4vWx7eo8pq1-qWPK-5" value="NPV of turmeric" style="ellipse;whiteSpace=wrap;html=1;fontSize=12;strokeWidth=1;fillColor=#60a917;fontColor=#ffffff;strokeColor=#2D7600;" parent="1" vertex="1">
          <mxGeometry x="1438" y="308" width="80" height="60" as="geometry" />
        </mxCell>
        <mxCell id="qbSNNWnGffYOng-eK7Mu-48" value="" style="edgeStyle=orthogonalEdgeStyle;rounded=0;orthogonalLoop=1;jettySize=auto;html=1;" parent="1" source="vRBI4vWx7eo8pq1-qWPK-8" target="qbSNNWnGffYOng-eK7Mu-25" edge="1">
          <mxGeometry relative="1" as="geometry" />
        </mxCell>
        <mxCell id="qbSNNWnGffYOng-eK7Mu-49" value="" style="edgeStyle=orthogonalEdgeStyle;rounded=0;orthogonalLoop=1;jettySize=auto;html=1;" parent="1" source="vRBI4vWx7eo8pq1-qWPK-8" target="Bm_euUfFgAgu9yLUH32F-35" edge="1">
          <mxGeometry relative="1" as="geometry" />
        </mxCell>
        <mxCell id="qbSNNWnGffYOng-eK7Mu-51" value="" style="edgeStyle=orthogonalEdgeStyle;rounded=0;orthogonalLoop=1;jettySize=auto;html=1;" parent="1" source="vRBI4vWx7eo8pq1-qWPK-8" target="qbSNNWnGffYOng-eK7Mu-50" edge="1">
          <mxGeometry relative="1" as="geometry" />
        </mxCell>
        <mxCell id="vRBI4vWx7eo8pq1-qWPK-8" value="cereal risk" style="ellipse;whiteSpace=wrap;html=1;fontSize=12;strokeWidth=1;labelBackgroundColor=none;fillColor=#bac8d3;strokeColor=#23445d;" parent="1" vertex="1">
          <mxGeometry x="964" y="498" width="56" height="50" as="geometry" />
        </mxCell>
        <mxCell id="vRBI4vWx7eo8pq1-qWPK-17" style="edgeStyle=none;curved=1;rounded=0;orthogonalLoop=1;jettySize=auto;html=1;entryX=0;entryY=0.5;entryDx=0;entryDy=0;fontSize=12;startSize=8;endSize=8;strokeWidth=1;" parent="1" source="vRBI4vWx7eo8pq1-qWPK-4" target="vRBI4vWx7eo8pq1-qWPK-4" edge="1">
          <mxGeometry relative="1" as="geometry" />
        </mxCell>
        <mxCell id="vRBI4vWx7eo8pq1-qWPK-29" value="NPV of cereal" style="ellipse;whiteSpace=wrap;html=1;fontSize=12;strokeWidth=1;fillColor=#60a917;fontColor=#ffffff;strokeColor=#2D7600;" parent="1" vertex="1">
          <mxGeometry x="1471" y="540" width="70" height="60" as="geometry" />
        </mxCell>
        <mxCell id="qbSNNWnGffYOng-eK7Mu-58" value="" style="edgeStyle=orthogonalEdgeStyle;rounded=0;orthogonalLoop=1;jettySize=auto;html=1;" parent="1" target="qbSNNWnGffYOng-eK7Mu-57" edge="1">
          <mxGeometry relative="1" as="geometry">
            <mxPoint x="1184" y="674" as="sourcePoint" />
          </mxGeometry>
        </mxCell>
        <mxCell id="7G__n_sAWaHiesUCzbCm-1" value="extreme climatic events" style="ellipse;whiteSpace=wrap;html=1;fillColor=#bac8d3;strokeColor=#23445d;" parent="1" vertex="1">
          <mxGeometry x="750" y="120" width="120" height="40" as="geometry" />
        </mxCell>
        <mxCell id="g0W_0NXHWMT82P0ljdfY-27" value="" style="edgeStyle=orthogonalEdgeStyle;rounded=0;orthogonalLoop=1;jettySize=auto;html=1;" edge="1" parent="1" source="Bm_euUfFgAgu9yLUH32F-1" target="vRBI4vWx7eo8pq1-qWPK-5">
          <mxGeometry relative="1" as="geometry" />
        </mxCell>
        <mxCell id="Bm_euUfFgAgu9yLUH32F-1" value="Revenue" style="ellipse;whiteSpace=wrap;html=1;fillColor=#60a917;fontColor=#ffffff;strokeColor=#2D7600;" parent="1" vertex="1">
          <mxGeometry x="1267" y="350.5" width="120" height="37" as="geometry" />
        </mxCell>
        <mxCell id="Bm_euUfFgAgu9yLUH32F-4" value="turmeric risk" style="ellipse;whiteSpace=wrap;html=1;fillColor=#bac8d3;strokeColor=#23445d;" parent="1" vertex="1">
          <mxGeometry x="920" y="140" width="120" height="30" as="geometry" />
        </mxCell>
        <mxCell id="g0W_0NXHWMT82P0ljdfY-26" value="" style="edgeStyle=orthogonalEdgeStyle;rounded=0;orthogonalLoop=1;jettySize=auto;html=1;" edge="1" parent="1" source="Bm_euUfFgAgu9yLUH32F-5" target="vRBI4vWx7eo8pq1-qWPK-5">
          <mxGeometry relative="1" as="geometry" />
        </mxCell>
        <mxCell id="Bm_euUfFgAgu9yLUH32F-5" value="Total costs" style="ellipse;whiteSpace=wrap;html=1;fillColor=#60a917;fontColor=#ffffff;strokeColor=#2D7600;" parent="1" vertex="1">
          <mxGeometry x="1267" y="257" width="120" height="36" as="geometry" />
        </mxCell>
        <mxCell id="qbSNNWnGffYOng-eK7Mu-45" value="" style="edgeStyle=orthogonalEdgeStyle;rounded=0;orthogonalLoop=1;jettySize=auto;html=1;" parent="1" source="Bm_euUfFgAgu9yLUH32F-6" target="vRBI4vWx7eo8pq1-qWPK-29" edge="1">
          <mxGeometry relative="1" as="geometry" />
        </mxCell>
        <mxCell id="Bm_euUfFgAgu9yLUH32F-6" value="Total costs" style="ellipse;whiteSpace=wrap;html=1;fillColor=#60a917;fontColor=#ffffff;strokeColor=#2D7600;" parent="1" vertex="1">
          <mxGeometry x="1285" y="523" width="120" height="32" as="geometry" />
        </mxCell>
        <mxCell id="g0W_0NXHWMT82P0ljdfY-28" value="" style="edgeStyle=orthogonalEdgeStyle;rounded=0;orthogonalLoop=1;jettySize=auto;html=1;" edge="1" parent="1" source="Bm_euUfFgAgu9yLUH32F-8" target="vRBI4vWx7eo8pq1-qWPK-5">
          <mxGeometry relative="1" as="geometry" />
        </mxCell>
        <mxCell id="Bm_euUfFgAgu9yLUH32F-8" value="Discount rate" style="ellipse;whiteSpace=wrap;html=1;fillColor=#bac8d3;strokeColor=#23445d;" parent="1" vertex="1">
          <mxGeometry x="1560" y="318" width="120" height="40" as="geometry" />
        </mxCell>
        <mxCell id="Bm_euUfFgAgu9yLUH32F-24" value="" style="endArrow=classic;html=1;rounded=0;" parent="1" edge="1">
          <mxGeometry width="50" height="50" relative="1" as="geometry">
            <mxPoint x="2450" y="1300" as="sourcePoint" />
            <mxPoint x="2500" y="1250" as="targetPoint" />
          </mxGeometry>
        </mxCell>
        <mxCell id="Bm_euUfFgAgu9yLUH32F-31" value="" style="endArrow=classic;html=1;rounded=0;exitX=1;exitY=0.5;exitDx=0;exitDy=0;entryX=0.025;entryY=0.444;entryDx=0;entryDy=0;entryPerimeter=0;" parent="1" edge="1">
          <mxGeometry width="50" height="50" relative="1" as="geometry">
            <mxPoint x="1040" y="160" as="sourcePoint" />
            <mxPoint x="1101" y="191" as="targetPoint" />
          </mxGeometry>
        </mxCell>
        <mxCell id="Bm_euUfFgAgu9yLUH32F-32" value="" style="endArrow=classic;html=1;rounded=0;" parent="1" edge="1">
          <mxGeometry width="50" height="50" relative="1" as="geometry">
            <mxPoint x="2370" y="624" as="sourcePoint" />
            <mxPoint x="2420" y="574" as="targetPoint" />
          </mxGeometry>
        </mxCell>
        <mxCell id="Bm_euUfFgAgu9yLUH32F-35" value="extreme climatic events" style="ellipse;whiteSpace=wrap;html=1;fillColor=#bac8d3;strokeColor=#23445d;" parent="1" vertex="1">
          <mxGeometry x="780" y="445" width="120" height="40" as="geometry" />
        </mxCell>
        <mxCell id="Bm_euUfFgAgu9yLUH32F-36" value="disease pest" style="ellipse;whiteSpace=wrap;html=1;fillColor=#bac8d3;strokeColor=#23445d;" parent="1" vertex="1">
          <mxGeometry x="800" y="190" width="80" height="30" as="geometry" />
        </mxCell>
        <mxCell id="Bm_euUfFgAgu9yLUH32F-37" value="" style="endArrow=classic;html=1;rounded=0;exitX=0.638;exitY=-0.033;exitDx=0;exitDy=0;exitPerimeter=0;" parent="1" edge="1">
          <mxGeometry width="50" height="50" relative="1" as="geometry">
            <mxPoint x="851.04" y="190.01" as="sourcePoint" />
            <mxPoint x="923" y="161" as="targetPoint" />
          </mxGeometry>
        </mxCell>
        <mxCell id="Bm_euUfFgAgu9yLUH32F-38" value="" style="endArrow=classic;html=1;rounded=0;exitX=1;exitY=0.5;exitDx=0;exitDy=0;entryX=0;entryY=0.5;entryDx=0;entryDy=0;" parent="1" source="7G__n_sAWaHiesUCzbCm-1" target="Bm_euUfFgAgu9yLUH32F-4" edge="1">
          <mxGeometry width="50" height="50" relative="1" as="geometry">
            <mxPoint x="860" y="153.5" as="sourcePoint" />
            <mxPoint x="912" y="126.5" as="targetPoint" />
          </mxGeometry>
        </mxCell>
        <mxCell id="qbSNNWnGffYOng-eK7Mu-56" value="" style="edgeStyle=orthogonalEdgeStyle;rounded=0;orthogonalLoop=1;jettySize=auto;html=1;" parent="1" source="Bm_euUfFgAgu9yLUH32F-40" target="vRBI4vWx7eo8pq1-qWPK-29" edge="1">
          <mxGeometry relative="1" as="geometry" />
        </mxCell>
        <mxCell id="Bm_euUfFgAgu9yLUH32F-40" value="Revenue" style="ellipse;whiteSpace=wrap;html=1;fillColor=#60a917;fontColor=#ffffff;strokeColor=#2D7600;" parent="1" vertex="1">
          <mxGeometry x="1300" y="604" width="120" height="37" as="geometry" />
        </mxCell>
        <mxCell id="qbSNNWnGffYOng-eK7Mu-16" style="edgeStyle=orthogonalEdgeStyle;rounded=0;orthogonalLoop=1;jettySize=auto;html=1;exitX=0.5;exitY=1;exitDx=0;exitDy=0;" parent="1" edge="1">
          <mxGeometry relative="1" as="geometry">
            <mxPoint x="1127" y="641" as="sourcePoint" />
            <mxPoint x="1127" y="641" as="targetPoint" />
          </mxGeometry>
        </mxCell>
        <mxCell id="qbSNNWnGffYOng-eK7Mu-23" value="cereal benefit" style="swimlane;fontStyle=0;childLayout=stackLayout;horizontal=1;startSize=30;horizontalStack=0;resizeParent=1;resizeParentMax=0;resizeLast=0;collapsible=1;marginBottom=0;whiteSpace=wrap;html=1;fillColor=#bac8d3;strokeColor=#23445d;" parent="1" vertex="1" collapsed="1">
          <mxGeometry x="1000" y="607.5" width="80" height="30" as="geometry">
            <mxRectangle x="1067" y="484" width="140" height="110" as="alternateBounds" />
          </mxGeometry>
        </mxCell>
        <mxCell id="qbSNNWnGffYOng-eK7Mu-24" value="maize &amp;nbsp;yield &lt;br&gt;millet yield" style="text;strokeColor=none;fillColor=none;align=left;verticalAlign=middle;spacingLeft=4;spacingRight=4;overflow=hidden;points=[[0,0.5,0,0,0],[1,0.5,0,0,0]];portConstraint=eastwest;rotatable=0;whiteSpace=wrap;html=1;" parent="qbSNNWnGffYOng-eK7Mu-23" vertex="1">
          <mxGeometry y="30" width="140" height="30" as="geometry" />
        </mxCell>
        <mxCell id="qbSNNWnGffYOng-eK7Mu-25" value="animal feed yield firewood yield" style="text;strokeColor=none;fillColor=none;align=left;verticalAlign=middle;spacingLeft=4;spacingRight=4;overflow=hidden;points=[[0,0.5],[1,0.5]];portConstraint=eastwest;rotatable=0;whiteSpace=wrap;html=1;" parent="qbSNNWnGffYOng-eK7Mu-23" vertex="1">
          <mxGeometry y="60" width="140" height="30" as="geometry" />
        </mxCell>
        <mxCell id="qbSNNWnGffYOng-eK7Mu-26" value="food access" style="text;strokeColor=none;fillColor=none;align=left;verticalAlign=middle;spacingLeft=4;spacingRight=4;overflow=hidden;points=[[0,0.5],[1,0.5]];portConstraint=eastwest;rotatable=0;whiteSpace=wrap;html=1;" parent="qbSNNWnGffYOng-eK7Mu-23" vertex="1">
          <mxGeometry y="90" width="140" height="20" as="geometry" />
        </mxCell>
        <mxCell id="g0W_0NXHWMT82P0ljdfY-30" value="" style="edgeStyle=orthogonalEdgeStyle;rounded=0;orthogonalLoop=1;jettySize=auto;html=1;" edge="1" parent="1" source="qbSNNWnGffYOng-eK7Mu-44" target="Bm_euUfFgAgu9yLUH32F-1">
          <mxGeometry relative="1" as="geometry" />
        </mxCell>
        <mxCell id="qbSNNWnGffYOng-eK7Mu-44" value="crop price" style="ellipse;whiteSpace=wrap;html=1;fillColor=#bac8d3;strokeColor=#23445d;" parent="1" vertex="1">
          <mxGeometry x="1267" y="418" width="120" height="30" as="geometry" />
        </mxCell>
        <mxCell id="qbSNNWnGffYOng-eK7Mu-46" value="cereal production" style="ellipse;whiteSpace=wrap;html=1;fontSize=12;strokeWidth=1;fillColor=#bac8d3;strokeColor=#23445d;" parent="1" vertex="1">
          <mxGeometry x="838" y="684" width="120" height="40" as="geometry" />
        </mxCell>
        <mxCell id="qbSNNWnGffYOng-eK7Mu-50" value="disease pest" style="ellipse;whiteSpace=wrap;html=1;fontSize=12;strokeWidth=1;labelBackgroundColor=none;fillColor=#bac8d3;strokeColor=#23445d;" parent="1" vertex="1">
          <mxGeometry x="964" y="368" width="56" height="50" as="geometry" />
        </mxCell>
        <mxCell id="qbSNNWnGffYOng-eK7Mu-57" value="processing costs" style="ellipse;whiteSpace=wrap;html=1;fillColor=#bac8d3;strokeColor=#23445d;" parent="1" vertex="1">
          <mxGeometry x="1264" y="659" width="120" height="30" as="geometry" />
        </mxCell>
        <mxCell id="g0W_0NXHWMT82P0ljdfY-25" value="" style="edgeStyle=orthogonalEdgeStyle;rounded=0;orthogonalLoop=1;jettySize=auto;html=1;" edge="1" parent="1" source="qbSNNWnGffYOng-eK7Mu-59" target="Bm_euUfFgAgu9yLUH32F-1">
          <mxGeometry relative="1" as="geometry" />
        </mxCell>
        <mxCell id="qbSNNWnGffYOng-eK7Mu-59" value="turmeric &amp;nbsp;benefit" style="swimlane;fontStyle=0;childLayout=stackLayout;horizontal=1;startSize=30;horizontalStack=0;resizeParent=1;resizeParentMax=0;resizeLast=0;collapsible=1;marginBottom=0;whiteSpace=wrap;html=1;fillColor=#bac8d3;strokeColor=#23445d;" parent="1" vertex="1" collapsed="1">
          <mxGeometry x="1048" y="354" width="130" height="30" as="geometry">
            <mxRectangle x="1063" y="770" width="140" height="120" as="alternateBounds" />
          </mxGeometry>
        </mxCell>
        <mxCell id="qbSNNWnGffYOng-eK7Mu-60" value="Turmeric yield" style="text;strokeColor=none;fillColor=none;align=left;verticalAlign=middle;spacingLeft=4;spacingRight=4;overflow=hidden;points=[[0,0.5],[1,0.5]];portConstraint=eastwest;rotatable=0;whiteSpace=wrap;html=1;" parent="qbSNNWnGffYOng-eK7Mu-59" vertex="1">
          <mxGeometry y="30" width="140" height="30" as="geometry" />
        </mxCell>
        <mxCell id="qbSNNWnGffYOng-eK7Mu-62" value="improve livelihood" style="text;strokeColor=none;fillColor=none;align=left;verticalAlign=middle;spacingLeft=4;spacingRight=4;overflow=hidden;points=[[0,0.5],[1,0.5]];portConstraint=eastwest;rotatable=0;whiteSpace=wrap;html=1;" parent="qbSNNWnGffYOng-eK7Mu-59" vertex="1">
          <mxGeometry y="60" width="140" height="30" as="geometry" />
        </mxCell>
        <mxCell id="qbSNNWnGffYOng-eK7Mu-61" value="prevent soil erosion" style="text;strokeColor=none;fillColor=none;align=left;verticalAlign=middle;spacingLeft=4;spacingRight=4;overflow=hidden;points=[[0,0.5],[1,0.5]];portConstraint=eastwest;rotatable=0;whiteSpace=wrap;html=1;" parent="qbSNNWnGffYOng-eK7Mu-59" vertex="1">
          <mxGeometry y="90" width="140" height="30" as="geometry" />
        </mxCell>
        <mxCell id="P7z4gR5DvrRTQaax9_9S-4" value="cereal maintenance cost" style="swimlane;fontStyle=0;childLayout=stackLayout;horizontal=1;startSize=30;horizontalStack=0;resizeParent=1;resizeParentMax=0;resizeLast=0;collapsible=1;marginBottom=0;whiteSpace=wrap;html=1;fillColor=#bac8d3;strokeColor=#23445d;" parent="1" vertex="1" collapsed="1">
          <mxGeometry x="1070" y="485" width="170" height="30" as="geometry">
            <mxRectangle x="1263" y="710" width="140" height="120" as="alternateBounds" />
          </mxGeometry>
        </mxCell>
        <mxCell id="P7z4gR5DvrRTQaax9_9S-5" value="FYM collection" style="text;strokeColor=none;fillColor=none;align=left;verticalAlign=middle;spacingLeft=4;spacingRight=4;overflow=hidden;points=[[0,0.5],[1,0.5]];portConstraint=eastwest;rotatable=0;whiteSpace=wrap;html=1;" parent="P7z4gR5DvrRTQaax9_9S-4" vertex="1">
          <mxGeometry y="30" width="140" height="30" as="geometry" />
        </mxCell>
        <mxCell id="P7z4gR5DvrRTQaax9_9S-6" value="&amp;nbsp;Weeding&lt;br&gt;" style="text;strokeColor=none;fillColor=none;align=left;verticalAlign=middle;spacingLeft=4;spacingRight=4;overflow=hidden;points=[[0,0.5],[1,0.5]];portConstraint=eastwest;rotatable=0;whiteSpace=wrap;html=1;" parent="P7z4gR5DvrRTQaax9_9S-4" vertex="1">
          <mxGeometry y="60" width="140" height="30" as="geometry" />
        </mxCell>
        <mxCell id="P7z4gR5DvrRTQaax9_9S-7" value="plantation" style="text;strokeColor=none;fillColor=none;align=left;verticalAlign=middle;spacingLeft=4;spacingRight=4;overflow=hidden;points=[[0,0.5],[1,0.5]];portConstraint=eastwest;rotatable=0;whiteSpace=wrap;html=1;" parent="P7z4gR5DvrRTQaax9_9S-4" vertex="1">
          <mxGeometry y="90" width="140" height="30" as="geometry" />
        </mxCell>
        <mxCell id="P7z4gR5DvrRTQaax9_9S-9" value="cereal harvesting cost" style="swimlane;fontStyle=0;childLayout=stackLayout;horizontal=1;startSize=30;horizontalStack=0;resizeParent=1;resizeParentMax=0;resizeLast=0;collapsible=1;marginBottom=0;whiteSpace=wrap;html=1;fillColor=#bac8d3;strokeColor=#23445d;" parent="1" vertex="1" collapsed="1">
          <mxGeometry x="1075" y="534" width="160" height="30" as="geometry">
            <mxRectangle x="1426" y="790" width="140" height="90" as="alternateBounds" />
          </mxGeometry>
        </mxCell>
        <mxCell id="P7z4gR5DvrRTQaax9_9S-10" value="cutting" style="text;strokeColor=none;fillColor=none;align=left;verticalAlign=middle;spacingLeft=4;spacingRight=4;overflow=hidden;points=[[0,0.5],[1,0.5]];portConstraint=eastwest;rotatable=0;whiteSpace=wrap;html=1;" parent="P7z4gR5DvrRTQaax9_9S-9" vertex="1">
          <mxGeometry y="30" width="140" height="30" as="geometry" />
        </mxCell>
        <mxCell id="P7z4gR5DvrRTQaax9_9S-11" value="shelling/thresing" style="text;strokeColor=none;fillColor=none;align=left;verticalAlign=middle;spacingLeft=4;spacingRight=4;overflow=hidden;points=[[0,0.5],[1,0.5]];portConstraint=eastwest;rotatable=0;whiteSpace=wrap;html=1;" parent="P7z4gR5DvrRTQaax9_9S-9" vertex="1">
          <mxGeometry y="60" width="140" height="30" as="geometry" />
        </mxCell>
        <mxCell id="g0W_0NXHWMT82P0ljdfY-24" value="" style="edgeStyle=orthogonalEdgeStyle;rounded=0;orthogonalLoop=1;jettySize=auto;html=1;" edge="1" parent="1" source="d5tyBhBD4ZNlllIkALd0-3" target="Bm_euUfFgAgu9yLUH32F-5">
          <mxGeometry relative="1" as="geometry" />
        </mxCell>
        <mxCell id="d5tyBhBD4ZNlllIkALd0-3" value="Turmeric Post harvesting cost" style="swimlane;fontStyle=0;childLayout=stackLayout;horizontal=1;startSize=30;horizontalStack=0;resizeParent=1;resizeParentMax=0;resizeLast=0;collapsible=1;marginBottom=0;whiteSpace=wrap;html=1;fillColor=#bac8d3;strokeColor=#23445d;" parent="1" vertex="1" collapsed="1">
          <mxGeometry x="1013" y="300" width="200" height="30" as="geometry">
            <mxRectangle x="830" y="780" width="170" height="120" as="alternateBounds" />
          </mxGeometry>
        </mxCell>
        <mxCell id="d5tyBhBD4ZNlllIkALd0-4" value="storage cost" style="text;strokeColor=none;fillColor=none;align=left;verticalAlign=middle;spacingLeft=4;spacingRight=4;overflow=hidden;points=[[0,0.5],[1,0.5]];portConstraint=eastwest;rotatable=0;whiteSpace=wrap;html=1;" parent="d5tyBhBD4ZNlllIkALd0-3" vertex="1">
          <mxGeometry y="30" width="170" height="30" as="geometry" />
        </mxCell>
        <mxCell id="d5tyBhBD4ZNlllIkALd0-5" value="packaging" style="text;strokeColor=none;fillColor=none;align=left;verticalAlign=middle;spacingLeft=4;spacingRight=4;overflow=hidden;points=[[0,0.5],[1,0.5]];portConstraint=eastwest;rotatable=0;whiteSpace=wrap;html=1;" parent="d5tyBhBD4ZNlllIkALd0-3" vertex="1">
          <mxGeometry y="60" width="170" height="30" as="geometry" />
        </mxCell>
        <mxCell id="d5tyBhBD4ZNlllIkALd0-6" value="marketing" style="text;strokeColor=none;fillColor=none;align=left;verticalAlign=middle;spacingLeft=4;spacingRight=4;overflow=hidden;points=[[0,0.5],[1,0.5]];portConstraint=eastwest;rotatable=0;whiteSpace=wrap;html=1;" parent="d5tyBhBD4ZNlllIkALd0-3" vertex="1">
          <mxGeometry y="90" width="170" height="30" as="geometry" />
        </mxCell>
        <mxCell id="g0W_0NXHWMT82P0ljdfY-13" value="" style="edgeStyle=orthogonalEdgeStyle;rounded=0;orthogonalLoop=1;jettySize=auto;html=1;" edge="1" parent="1" source="d5tyBhBD4ZNlllIkALd0-7" target="Bm_euUfFgAgu9yLUH32F-5">
          <mxGeometry relative="1" as="geometry" />
        </mxCell>
        <mxCell id="d5tyBhBD4ZNlllIkALd0-7" value="Turmeric &amp;nbsp;implementation cost" style="swimlane;fontStyle=0;childLayout=stackLayout;horizontal=1;startSize=30;horizontalStack=0;resizeParent=1;resizeParentMax=0;resizeLast=0;collapsible=1;marginBottom=0;whiteSpace=wrap;html=1;fillColor=#bac8d3;strokeColor=#23445d;" parent="1" vertex="1" collapsed="1">
          <mxGeometry x="1007" y="170" width="193" height="30" as="geometry">
            <mxRectangle x="1063" y="940" width="140" height="120" as="alternateBounds" />
          </mxGeometry>
        </mxCell>
        <mxCell id="d5tyBhBD4ZNlllIkALd0-8" value="Seed &amp;nbsp;&amp;nbsp;&lt;br&gt;&amp;nbsp;&lt;br&gt;&amp;nbsp;" style="text;strokeColor=none;fillColor=none;align=left;verticalAlign=middle;spacingLeft=4;spacingRight=4;overflow=hidden;points=[[0,0.5],[1,0.5]];portConstraint=eastwest;rotatable=0;whiteSpace=wrap;html=1;" parent="d5tyBhBD4ZNlllIkALd0-7" vertex="1">
          <mxGeometry y="30" width="140" height="30" as="geometry" />
        </mxCell>
        <mxCell id="d5tyBhBD4ZNlllIkALd0-9" value="Land preparation" style="text;strokeColor=none;fillColor=none;align=left;verticalAlign=middle;spacingLeft=4;spacingRight=4;overflow=hidden;points=[[0,0.5],[1,0.5]];portConstraint=eastwest;rotatable=0;whiteSpace=wrap;html=1;" parent="d5tyBhBD4ZNlllIkALd0-7" vertex="1">
          <mxGeometry y="60" width="140" height="30" as="geometry" />
        </mxCell>
        <mxCell id="d5tyBhBD4ZNlllIkALd0-10" value="land lease" style="text;strokeColor=none;fillColor=none;align=left;verticalAlign=middle;spacingLeft=4;spacingRight=4;overflow=hidden;points=[[0,0.5],[1,0.5]];portConstraint=eastwest;rotatable=0;whiteSpace=wrap;html=1;" parent="d5tyBhBD4ZNlllIkALd0-7" vertex="1">
          <mxGeometry y="90" width="140" height="30" as="geometry" />
        </mxCell>
        <mxCell id="g0W_0NXHWMT82P0ljdfY-15" value="" style="edgeStyle=orthogonalEdgeStyle;rounded=0;orthogonalLoop=1;jettySize=auto;html=1;" edge="1" parent="1" source="d5tyBhBD4ZNlllIkALd0-12" target="Bm_euUfFgAgu9yLUH32F-5">
          <mxGeometry relative="1" as="geometry" />
        </mxCell>
        <mxCell id="d5tyBhBD4ZNlllIkALd0-12" value="Turmeric maintenance cost" style="swimlane;fontStyle=0;childLayout=stackLayout;horizontal=1;startSize=30;horizontalStack=0;resizeParent=1;resizeParentMax=0;resizeLast=0;collapsible=1;marginBottom=0;whiteSpace=wrap;html=1;fillColor=#bac8d3;strokeColor=#23445d;" parent="1" vertex="1" collapsed="1">
          <mxGeometry x="1013" y="220" width="180" height="30" as="geometry">
            <mxRectangle x="1263" y="910" width="140" height="240" as="alternateBounds" />
          </mxGeometry>
        </mxCell>
        <mxCell id="d5tyBhBD4ZNlllIkALd0-13" value="FYM &lt;br&gt;" style="text;strokeColor=none;fillColor=none;align=left;verticalAlign=middle;spacingLeft=4;spacingRight=4;overflow=hidden;points=[[0,0.5],[1,0.5]];portConstraint=eastwest;rotatable=0;whiteSpace=wrap;html=1;" parent="d5tyBhBD4ZNlllIkALd0-12" vertex="1">
          <mxGeometry y="30" width="140" height="30" as="geometry" />
        </mxCell>
        <mxCell id="d5tyBhBD4ZNlllIkALd0-14" value="&amp;nbsp;Weeding&lt;br&gt;" style="text;strokeColor=none;fillColor=none;align=left;verticalAlign=middle;spacingLeft=4;spacingRight=4;overflow=hidden;points=[[0,0.5],[1,0.5]];portConstraint=eastwest;rotatable=0;whiteSpace=wrap;html=1;" parent="d5tyBhBD4ZNlllIkALd0-12" vertex="1">
          <mxGeometry y="60" width="140" height="30" as="geometry" />
        </mxCell>
        <mxCell id="d5tyBhBD4ZNlllIkALd0-15" value="Plantation" style="text;strokeColor=none;fillColor=none;align=left;verticalAlign=middle;spacingLeft=4;spacingRight=4;overflow=hidden;points=[[0,0.5],[1,0.5]];portConstraint=eastwest;rotatable=0;whiteSpace=wrap;html=1;" parent="d5tyBhBD4ZNlllIkALd0-12" vertex="1">
          <mxGeometry y="90" width="140" height="30" as="geometry" />
        </mxCell>
        <mxCell id="d5tyBhBD4ZNlllIkALd0-23" value="Mulch collection" style="text;strokeColor=none;fillColor=none;align=left;verticalAlign=middle;spacingLeft=4;spacingRight=4;overflow=hidden;points=[[0,0.5],[1,0.5]];portConstraint=eastwest;rotatable=0;whiteSpace=wrap;html=1;" parent="d5tyBhBD4ZNlllIkALd0-12" vertex="1">
          <mxGeometry y="120" width="140" height="30" as="geometry" />
        </mxCell>
        <mxCell id="d5tyBhBD4ZNlllIkALd0-24" value="Boiling" style="text;strokeColor=none;fillColor=none;align=left;verticalAlign=middle;spacingLeft=4;spacingRight=4;overflow=hidden;points=[[0,0.5],[1,0.5]];portConstraint=eastwest;rotatable=0;whiteSpace=wrap;html=1;" parent="d5tyBhBD4ZNlllIkALd0-12" vertex="1">
          <mxGeometry y="150" width="140" height="30" as="geometry" />
        </mxCell>
        <mxCell id="d5tyBhBD4ZNlllIkALd0-25" value="Drying" style="text;strokeColor=none;fillColor=none;align=left;verticalAlign=middle;spacingLeft=4;spacingRight=4;overflow=hidden;points=[[0,0.5],[1,0.5]];portConstraint=eastwest;rotatable=0;whiteSpace=wrap;html=1;" parent="d5tyBhBD4ZNlllIkALd0-12" vertex="1">
          <mxGeometry y="180" width="140" height="30" as="geometry" />
        </mxCell>
        <mxCell id="d5tyBhBD4ZNlllIkALd0-26" value="Grinding" style="text;strokeColor=none;fillColor=none;align=left;verticalAlign=middle;spacingLeft=4;spacingRight=4;overflow=hidden;points=[[0,0.5],[1,0.5]];portConstraint=eastwest;rotatable=0;whiteSpace=wrap;html=1;" parent="d5tyBhBD4ZNlllIkALd0-12" vertex="1">
          <mxGeometry y="210" width="140" height="30" as="geometry" />
        </mxCell>
        <mxCell id="d5tyBhBD4ZNlllIkALd0-29" value="cereal Post harvesting cost" style="swimlane;fontStyle=0;childLayout=stackLayout;horizontal=1;startSize=30;horizontalStack=0;resizeParent=1;resizeParentMax=0;resizeLast=0;collapsible=1;marginBottom=0;whiteSpace=wrap;html=1;fillColor=#bac8d3;strokeColor=#23445d;" parent="1" vertex="1" collapsed="1">
          <mxGeometry x="1080" y="590" width="180" height="30" as="geometry">
            <mxRectangle x="860" y="985" width="140" height="90" as="alternateBounds" />
          </mxGeometry>
        </mxCell>
        <mxCell id="d5tyBhBD4ZNlllIkALd0-30" value="cleaning" style="text;strokeColor=none;fillColor=none;align=left;verticalAlign=middle;spacingLeft=4;spacingRight=4;overflow=hidden;points=[[0,0.5],[1,0.5]];portConstraint=eastwest;rotatable=0;whiteSpace=wrap;html=1;" parent="d5tyBhBD4ZNlllIkALd0-29" vertex="1">
          <mxGeometry y="30" width="140" height="30" as="geometry" />
        </mxCell>
        <mxCell id="d5tyBhBD4ZNlllIkALd0-31" value="treatment" style="text;strokeColor=none;fillColor=none;align=left;verticalAlign=middle;spacingLeft=4;spacingRight=4;overflow=hidden;points=[[0,0.5],[1,0.5]];portConstraint=eastwest;rotatable=0;whiteSpace=wrap;html=1;" parent="d5tyBhBD4ZNlllIkALd0-29" vertex="1">
          <mxGeometry y="60" width="140" height="30" as="geometry" />
        </mxCell>
        <mxCell id="g0W_0NXHWMT82P0ljdfY-23" value="" style="edgeStyle=orthogonalEdgeStyle;rounded=0;orthogonalLoop=1;jettySize=auto;html=1;" edge="1" parent="1" source="d5tyBhBD4ZNlllIkALd0-17" target="Bm_euUfFgAgu9yLUH32F-5">
          <mxGeometry relative="1" as="geometry" />
        </mxCell>
        <mxCell id="d5tyBhBD4ZNlllIkALd0-17" value="Turmeric harvesting cost" style="swimlane;fontStyle=0;childLayout=stackLayout;horizontal=1;startSize=30;horizontalStack=0;resizeParent=1;resizeParentMax=0;resizeLast=0;collapsible=1;marginBottom=0;whiteSpace=wrap;html=1;fillColor=#bac8d3;strokeColor=#23445d;" parent="1" vertex="1" collapsed="1">
          <mxGeometry x="1013" y="260" width="170" height="30" as="geometry">
            <mxRectangle x="1426" y="960" width="140" height="150" as="alternateBounds" />
          </mxGeometry>
        </mxCell>
        <mxCell id="d5tyBhBD4ZNlllIkALd0-18" value="Extracting turmeric" style="text;strokeColor=none;fillColor=none;align=left;verticalAlign=middle;spacingLeft=4;spacingRight=4;overflow=hidden;points=[[0,0.5],[1,0.5]];portConstraint=eastwest;rotatable=0;whiteSpace=wrap;html=1;" parent="d5tyBhBD4ZNlllIkALd0-17" vertex="1">
          <mxGeometry y="30" width="140" height="30" as="geometry" />
        </mxCell>
        <mxCell id="d5tyBhBD4ZNlllIkALd0-19" value="Removing roots" style="text;strokeColor=none;fillColor=none;align=left;verticalAlign=middle;spacingLeft=4;spacingRight=4;overflow=hidden;points=[[0,0.5],[1,0.5]];portConstraint=eastwest;rotatable=0;whiteSpace=wrap;html=1;" parent="d5tyBhBD4ZNlllIkALd0-17" vertex="1">
          <mxGeometry y="60" width="140" height="30" as="geometry" />
        </mxCell>
        <mxCell id="d5tyBhBD4ZNlllIkALd0-21" value="sorting seeds" style="text;strokeColor=none;fillColor=none;align=left;verticalAlign=middle;spacingLeft=4;spacingRight=4;overflow=hidden;points=[[0,0.5],[1,0.5]];portConstraint=eastwest;rotatable=0;whiteSpace=wrap;html=1;" parent="d5tyBhBD4ZNlllIkALd0-17" vertex="1">
          <mxGeometry y="90" width="140" height="30" as="geometry" />
        </mxCell>
        <mxCell id="d5tyBhBD4ZNlllIkALd0-22" value="gathering" style="text;strokeColor=none;fillColor=none;align=left;verticalAlign=middle;spacingLeft=4;spacingRight=4;overflow=hidden;points=[[0,0.5],[1,0.5]];portConstraint=eastwest;rotatable=0;whiteSpace=wrap;html=1;" parent="d5tyBhBD4ZNlllIkALd0-17" vertex="1">
          <mxGeometry y="120" width="140" height="30" as="geometry" />
        </mxCell>
        <mxCell id="g0W_0NXHWMT82P0ljdfY-34" value="" style="edgeStyle=orthogonalEdgeStyle;rounded=0;orthogonalLoop=1;jettySize=auto;html=1;" edge="1" parent="1" source="g0W_0NXHWMT82P0ljdfY-31" target="vRBI4vWx7eo8pq1-qWPK-29">
          <mxGeometry relative="1" as="geometry" />
        </mxCell>
        <mxCell id="g0W_0NXHWMT82P0ljdfY-31" value="Discount rate" style="ellipse;whiteSpace=wrap;html=1;fillColor=#bac8d3;strokeColor=#23445d;" vertex="1" parent="1">
          <mxGeometry x="1560" y="550" width="120" height="40" as="geometry" />
        </mxCell>
        <mxCell id="g0W_0NXHWMT82P0ljdfY-32" value="crop price" style="ellipse;whiteSpace=wrap;html=1;fillColor=#bac8d3;strokeColor=#23445d;" vertex="1" parent="1">
          <mxGeometry x="1183" y="655" width="120" height="30" as="geometry" />
        </mxCell>
      </root>
    </mxGraphModel>
  </diagram>
</mxfile>
